<?xml version="1.0" encoding="utf-8"?>
<!-- Uploaded to: SVG Repo, www.svgrepo.com, Generator: SVG Repo Mixer Tools -->
<svg width="800px" height="800px" viewBox="0 0 1024 1024" class="icon"  version="1.1" xmlns="http://www.w3.org/2000/svg"><path d="M582.108083 538.566264c10.421904 63.650339-18.574006 130.018045-77.748681 164.129-59.174675 34.206862-131.136961 26.182636-181.040617-14.737723l258.789298-149.391277zM73.033249 582.811401l176.437077 101.885299c-34.047017 27.908963-83.087509 33.407636-123.464394 10.102214-40.344916-23.305423-60.133745-68.573569-52.972683-111.987513z" fill="#5FCEFF" /><path d="M73.033249 582.811401c-7.161063 43.413943 12.627767 88.682089 52.972683 111.987513 40.376885 23.305423 89.417377 17.80675 123.464394-10.102214l-176.437077-101.885299z m-8.375886-3.740376c0-184.940839 149.934751-334.875589 334.907558-334.875589 36.412725 0 71.386844 5.818363 104.1551 16.527988l404.983672-144.787737c-13.84259 85.325341-63.970029 159.685305-136.795479 214.320377l170.682651 1.054978c-35.070026 62.691268-91.143705 109.685742-159.077893 138.937405l184.429334 59.782086c-62.211732 58.311511-145.874684 86.604102-235.547813 86.220474-18.510068 167.485748-160.420593 297.695607-332.829572 297.695607-184.972808 0-334.907558-149.902782-334.907558-334.875589z m439.702039 123.624239c59.174675-34.110955 88.170585-100.478661 77.748681-164.129l-258.789298 149.391277c49.903656 40.920358 121.865942 48.944585 181.040617 14.737723z" fill="#FFB578" /><path d="M399.564921 936.324935c-197.009147 0-357.285879-160.263944-357.285879-357.25391 0-196.993163 160.276732-357.25391 357.285879-357.25391 35.312991 0 70.16243 5.147014 103.70114 15.303574l397.902532-142.258986a22.387912 22.387912 0 0 1 29.6257 24.654516c-11.275477 69.491081-46.022616 134.880534-99.506803 188.725971l111.440842 0.687335a22.378321 22.378321 0 0 1 19.39561 33.305335c-27.982492 50.015547-69.1618 91.949324-120.647922 123.275777l133.368399 43.228522a22.378321 22.378321 0 0 1 8.404658 37.614761c-60.514177 56.719453-140.193787 88.314445-231.311916 91.926945-28.455634 171.248503-176.596922 298.04407-352.37224 298.04407z m0-669.751178c-172.329056 0-312.529237 140.187393-312.529237 312.497268s140.200181 312.497268 312.529237 312.497268c159.560626 0 293.085673-119.417115 310.585521-277.775705a22.378321 22.378321 0 0 1 22.240854-19.919902h0.099104l1.703949 0.003197c71.930318 0 136.060192-18.976816 187.74772-55.232893l-145.331211-47.106366a22.378321 22.378321 0 0 1-1.950111-41.841067c52.157472-22.458244 95.302875-55.354375 126.642116-96.258749l-129.535313-0.799226a22.378321 22.378321 0 0 1-13.292722-40.280977c58.263557-43.708058 99.506803-100.021504 118.947169-161.469177L511.255122 281.794212a22.394306 22.394306 0 0 1-14.485168 0.201405 312.347014 312.347014 0 0 0-97.205033-15.42186z" fill="#4F46A3" /><path d="M424.673398 746.51841h-0.006394c-42.061653-0.003197-83.093903-14.654603-115.536075-41.256033a22.378321 22.378321 0 0 1 3.001892-36.684462l258.786101-149.391277a22.384715 22.384715 0 0 1 33.273367 15.763929c12.177004 74.343979-23.45248 149.547925-88.656514 187.133914a181.865418 181.865418 0 0 1-90.862377 24.433929z m-58.170847-57.652948a137.93038 137.93038 0 0 0 58.164453 12.896306h0.006394a137.038444 137.038444 0 0 0 68.487253-18.442933c39.120502-22.550954 64.117087-63.036533 68.08764-106.878861l-194.74574 112.425488zM180.308526 731.774294a131.188112 131.188112 0 0 1-65.488558-17.595754c-47.039231-27.173676-72.703968-81.428316-63.867728-135.005214a22.384715 22.384715 0 0 1 33.273366-15.735157l176.437077 101.882102a22.365533 22.365533 0 0 1 2.995498 36.681265 131.808311 131.808311 0 0 1-83.349655 29.772758zM96.850176 622.405045c5.789591 21.901982 20.047779 41.288002 40.35131 53.014243a86.373925 86.373925 0 0 0 43.10704 11.598364c7.822822 0 15.572115-1.067766 23.030489-3.120178l-106.488839-61.492429z" fill="#4F46A3" /></svg>